<?xml version="1.0" encoding="utf-8"?>
<!-- Generator: Adobe Illustrator 23.0.1, SVG Export Plug-In . SVG Version: 6.00 Build 0)  -->
<svg version="1.1" id="Layer_1" xmlns="http://www.w3.org/2000/svg" xmlns:xlink="http://www.w3.org/1999/xlink" x="0px" y="0px"
	 viewBox="0 0 40 40" style="enable-background:new 0 0 40 40;" xml:space="preserve">
<style type="text/css">
	.st0{fill:url(#SVGID_1_);}
	.st1{fill:url(#SVGID_2_);}
	.st2{fill:url(#SVGID_3_);}
	.st3{fill:url(#SVGID_4_);}
	.st4{fill:url(#SVGID_5_);}
	.st5{fill:url(#SVGID_6_);}
	.st6{fill:url(#SVGID_7_);}
	.st7{fill:url(#SVGID_8_);}
	.st8{fill:url(#SVGID_9_);}
	.st9{fill:url(#SVGID_10_);}
	.st10{fill:url(#SVGID_11_);}
	.st11{fill:url(#SVGID_12_);}
	.st12{fill:url(#SVGID_13_);}
	.st13{fill:url(#SVGID_14_);}
	.st14{fill:url(#SVGID_15_);}
	.st15{fill:url(#SVGID_16_);}
	.st16{fill:url(#SVGID_17_);}
	.st17{fill:url(#SVGID_18_);}
	.st18{fill:url(#SVGID_19_);}
	.st19{fill:url(#SVGID_20_);}
	.st20{fill:url(#SVGID_21_);}
	.st21{fill:url(#SVGID_22_);}
	.st22{fill:url(#SVGID_23_);}
	.st23{fill:url(#SVGID_24_);}
	.st24{fill:url(#SVGID_25_);}
	.st25{fill:url(#SVGID_26_);}
	.st26{fill:url(#SVGID_27_);}
	.st27{fill:url(#SVGID_28_);}
	.st28{fill:url(#SVGID_29_);}
	.st29{fill:url(#SVGID_30_);}
	.st30{fill:url(#SVGID_31_);}
	.st31{fill:url(#SVGID_32_);}
</style>
<g>
	
		<linearGradient id="SVGID_1_" gradientUnits="userSpaceOnUse" x1="-3.337860e-06" y1="14.65" x2="39.9886" y2="14.65" gradientTransform="matrix(1 0 0 -1 0 42)">
		<stop  offset="0.2593" style="stop-color:#FFDB6E"/>
		<stop  offset="1" style="stop-color:#FFBC5E"/>
	</linearGradient>
	<path class="st0" d="M35,40c-0.1-0.2-0.3-0.4-0.4-0.6c-0.6-1.1-1.3-2.3-1.9-3.4c-0.1-0.2-0.2-0.3-0.5-0.3c-0.3-0.1-0.6-0.2-0.8-0.4
		c-0.4-0.4-1-0.8-1.1-1.4c0-0.1-0.2-0.1-0.3-0.1c-0.7,0-1.3,0-2,0c-0.5,0-0.9-0.2-1.2-0.5c-0.2-0.1-0.4-0.2-0.6-0.2
		c-5.2,0-10.4,0-15.6,0c-2.8,0-5.6,0-8.5,0c-1,0-1.8-0.4-2.1-1.3c0-1.5,0-3.1,0-4.6c0.2-0.3,0.4-0.5,0.8-0.4s0.4,0.4,0.4,0.8
		c0,1.2,0,2.4,0,3.7c0,0.5,0.2,0.7,0.7,0.7c8,0,15.9,0,23.9,0c0.1,0,0.2,0,0.3,0c-0.1-0.2-0.1-0.3-0.2-0.4c-0.7-2-1.5-3.9-2.2-5.9
		c-0.4-1,0.2-1.9,1.1-2c0.2,0,0.5,0,0.7,0.1c2.4,0.9,4.7,1.8,7.1,2.7c0.8,0.3,1.1,0.9,1.1,1.7c0,0.6,0,1.3,0,1.9
		c0,0.1,0.1,0.3,0.1,0.3c0.8,0.2,1.1,0.9,1.6,1.4c0.1,0.1,0.3,0.2,0.4,0.2c0.7,0,1.5,0,2.2,0c0.6,0,0.7-0.2,0.7-0.7
		c0-5.3,0-10.7,0-16c0-0.6,0.2-0.9,0.6-0.9c0.4,0,0.6,0.3,0.6,0.9c0,5.3,0,10.6,0,16c0,1.3-0.7,1.9-1.9,1.9c-0.4,0-0.8,0-1.3,0
		c0.2,0.1,0.3,0.2,0.4,0.3c0.8,0.4,1.6,0.9,2.4,1.3c0.4,0.2,0.5,0.5,0.3,0.9c-0.2,0.3-0.5,0.4-0.9,0.2c-1.2-0.7-2.5-1.4-3.7-2
		c-0.3-0.1-0.4-0.1-0.6,0.1c-0.4,0.4-0.9,0.9-1.3,1.3c0.7,1.4,1.5,2.7,2.2,4c0.3,0.5,0.2,0.7-0.2,1C35.3,40,35.1,40,35,40z
		 M25.9,25.1c0.1,0.1,0.1,0.1,0.1,0.1c0.6,0.6,1.3,1.3,1.9,1.9c0.3,0.3,0.6,0.5,1.1,0.3c0.7-0.2,1.6,0.3,1.9,1
		c0.4,0.7,0.2,1.6-0.3,2.2c-0.6,0.5-1.4,0.7-2.1,0.3c-0.7-0.4-1.2-1.2-1-1.9c0.2-0.5,0-0.8-0.4-1.1c-0.5-0.4-0.9-0.9-1.4-1.4
		c-0.2-0.2-0.4-0.4-0.6-0.6c0,0-0.1,0-0.1,0.1c0.8,2.1,1.6,4.1,2.4,6.2c0.1,0.2,0.4,0.3,0.5,0.3c0.9,0,1.8,0,2.7,0
		c0.1,0,0.3-0.1,0.4-0.2c0.4-0.4,0.8-0.8,1.2-1.2c0.1-0.1,0.2-0.3,0.2-0.5c0-0.7,0-1.5,0-2.2c0-0.8,0-0.8-0.8-1.1
		C29.9,26.6,27.9,25.8,25.9,25.1z M33.7,31.5c-0.7,0.7-1.5,1.5-2.2,2.2c0.2,0.2,0.5,0.5,0.7,0.7c0.7-0.7,1.5-1.5,2.2-2.2
		C34.2,32,33.9,31.8,33.7,31.5z M29.3,29.9c0.4,0,0.7-0.3,0.7-0.6c0-0.4-0.3-0.7-0.7-0.7c-0.4,0-0.7,0.3-0.7,0.7
		C28.6,29.6,28.9,29.9,29.3,29.9z"/>
	
		<linearGradient id="SVGID_2_" gradientUnits="userSpaceOnUse" x1="0" y1="29.4401" x2="40" y2="29.4401" gradientTransform="matrix(1 0 0 -1 0 42)">
		<stop  offset="0.2593" style="stop-color:#FFDB6E"/>
		<stop  offset="1" style="stop-color:#FFBC5E"/>
	</linearGradient>
	<path class="st1" d="M0,1.3C0.4,0.3,1.1,0,2.1,0c2.5,0,5,0,7.5,0C9.7,0,9.9,0,10,0c0.3,0.1,0.5,0.3,0.5,0.6S10.3,1.1,10,1.2
		c-0.1,0-0.3,0-0.4,0c-2.5,0-5.1,0-7.6,0C1.3,1.2,1.2,1.3,1.2,2c0,1,0,2,0,3c12.6,0,25.1,0,37.6,0c0-0.3,0-0.5,0-0.8
		c0-0.8,0-1.6,0-2.3c0-0.6-0.2-0.8-0.8-0.8c-7.2,0-14.5,0-21.7,0c-1.2,0-2.4,0-3.6,0c-0.4,0-0.6-0.2-0.6-0.6c0-0.3,0.3-0.6,0.6-0.6
		h0.1c8.5,0,16.9,0,25.4,0C39.3,0,40,0.7,40,1.8c0,3.4,0,6.7,0,10.1c0,0.5-0.2,0.8-0.6,0.8c-0.4,0-0.6-0.3-0.6-0.8
		c0-1.7,0-3.5,0-5.2c0-0.1,0-0.3,0-0.4c-12.5,0-25.1,0-37.6,0c0,0.1,0,0.3,0,0.4c0,5.8,0,11.6,0,17.4c0,0.1,0,0.2,0,0.3
		c0,0.3,0,0.6-0.4,0.8C0.4,25.3,0.2,25,0,24.8C0,17,0,9.2,0,1.3z"/>
	
		<linearGradient id="SVGID_3_" gradientUnits="userSpaceOnUse" x1="7.0273" y1="26" x2="11.2745" y2="26" gradientTransform="matrix(1 0 0 -1 0 42)">
		<stop  offset="0.2593" style="stop-color:#FFDB6E"/>
		<stop  offset="1" style="stop-color:#FFBC5E"/>
	</linearGradient>
	<path class="st2" d="M10.5,15.6c0.6,0.6,0.9,1.3,0.6,2.2c-0.2,0.8-0.9,1.3-1.8,1.3c-0.6,0-1.2,0-1.8,0c-0.4,0-0.6-0.2-0.6-0.6
		c0-1.7,0-3.3,0-5c0-0.4,0.2-0.6,0.6-0.6c0.5,0,0.9,0,1.4,0c1.3,0,2.1,1.3,1.6,2.5C10.6,15.5,10.6,15.5,10.5,15.6z M8.2,16.4
		c0,0.5,0,1,0,1.5c0.4,0,0.8,0,1.1,0c0.4,0,0.7-0.3,0.7-0.7c0-0.4-0.2-0.8-0.7-0.8C9,16.4,8.6,16.4,8.2,16.4z M8.2,14.1
		c0,0.4,0,0.7,0,1.1c0.3,0,0.6,0,0.9,0c0.3,0,0.5-0.2,0.5-0.6c0-0.3-0.2-0.5-0.5-0.5C8.8,14,8.5,14.1,8.2,14.1z"/>
	
		<linearGradient id="SVGID_4_" gradientUnits="userSpaceOnUse" x1="22.8105" y1="25.9133" x2="27.5157" y2="25.9133" gradientTransform="matrix(1 0 0 -1 0 42)">
		<stop  offset="0.2593" style="stop-color:#FFDB6E"/>
		<stop  offset="1" style="stop-color:#FFBC5E"/>
	</linearGradient>
	<path class="st3" d="M24,15.4c0,1,0,1.9,0,2.8c0,0.1,0,0.2,0,0.4c0,0.3-0.3,0.6-0.6,0.6c-0.3,0-0.6-0.2-0.6-0.6c0-1.7,0-3.3,0-5
		c0-0.3,0.1-0.5,0.4-0.6s0.5,0.1,0.7,0.3c0.7,1,1.4,2,2.1,3c0.1,0.1,0.2,0.2,0.3,0.4c0-0.7,0-1.3,0-2c0-0.4,0-0.8,0-1.1
		c0-0.4,0.2-0.6,0.6-0.6s0.6,0.2,0.6,0.6c0,1.6,0,3.3,0,4.9c0,0.3-0.1,0.5-0.4,0.6s-0.5,0-0.7-0.3c-0.7-1-1.5-2.1-2.2-3.1
		C24.1,15.6,24.1,15.5,24,15.4z"/>
	
		<linearGradient id="SVGID_5_" gradientUnits="userSpaceOnUse" x1="28.3401" y1="26" x2="32.9826" y2="26" gradientTransform="matrix(1 0 0 -1 0 42)">
		<stop  offset="0.2593" style="stop-color:#FFDB6E"/>
		<stop  offset="1" style="stop-color:#FFBC5E"/>
	</linearGradient>
	<path class="st4" d="M28.3,16c0-0.8,0-1.6,0-2.3c0-0.6,0.2-0.8,0.7-0.8c0.4,0,0.8,0,1.2,0c1.3,0,2.2,0.7,2.5,1.9
		c0.3,1,0.3,2-0.2,2.9s-1.2,1.4-2.3,1.4c-0.4,0-0.9,0-1.3,0s-0.6-0.2-0.6-0.7C28.3,17.6,28.3,16.8,28.3,16L28.3,16z M29.5,14.1
		c0,1.3,0,2.6,0,3.8c0.8,0,1.5,0.1,1.9-0.7c0.5-0.9,0.4-1.8,0-2.6C31,13.9,30.3,14.1,29.5,14.1z"/>
	
		<linearGradient id="SVGID_6_" gradientUnits="userSpaceOnUse" x1="12.1047" y1="25.9303" x2="16.0039" y2="25.9303" gradientTransform="matrix(1 0 0 -1 0 42)">
		<stop  offset="0.2593" style="stop-color:#FFDB6E"/>
		<stop  offset="1" style="stop-color:#FFBC5E"/>
	</linearGradient>
	<path class="st5" d="M13.3,17c0,0.5,0,1,0,1.4c0,0.5-0.2,0.7-0.6,0.7c-0.4,0-0.6-0.2-0.6-0.7c0-1.6,0-3.2,0-4.8
		c0-0.5,0.2-0.7,0.7-0.7c0.4,0,0.8,0,1.2,0c1,0,1.8,0.6,1.9,1.6c0.2,0.9-0.3,1.7-1.2,2.1c0,0-0.1,0-0.2,0.1c0.3,0.4,0.6,0.7,0.9,1.1
		c0.1,0.1,0.2,0.2,0.3,0.4c0.3,0.3,0.3,0.7,0,0.9c-0.3,0.2-0.6,0.2-0.9-0.1c-0.4-0.5-0.8-0.9-1.2-1.4C13.6,17.3,13.5,17.2,13.3,17z
		 M13.3,14.1c0,0.5,0,0.9,0,1.4c0.3,0,0.6,0,0.9,0c0.4,0,0.7-0.4,0.7-0.7s-0.3-0.7-0.7-0.7C13.9,14,13.6,14.1,13.3,14.1z"/>
	
		<linearGradient id="SVGID_7_" gradientUnits="userSpaceOnUse" x1="16.8214" y1="25.9412" x2="21.9657" y2="25.9412" gradientTransform="matrix(1 0 0 -1 0 42)">
		<stop  offset="0.2593" style="stop-color:#FFDB6E"/>
		<stop  offset="1" style="stop-color:#FFBC5E"/>
	</linearGradient>
	<path class="st6" d="M22,18.4c0,0.4-0.1,0.6-0.4,0.7s-0.5,0-0.7-0.3c-0.1-0.2-0.2-0.4-0.3-0.6c-0.1-0.2-0.2-0.3-0.4-0.3
		c-0.5,0-1.1,0-1.6,0c-0.2,0-0.3,0.1-0.4,0.3c-0.1,0.2-0.1,0.4-0.2,0.6c-0.2,0.3-0.5,0.4-0.7,0.3C17,19,16.9,18.7,17,18.4
		c0.7-1.7,1.3-3.4,2-5.1c0.1-0.2,0.3-0.3,0.5-0.3c0.3-0.1,0.5,0.2,0.6,0.4c0.5,1.4,1.1,2.8,1.6,4.1C21.7,17.8,21.9,18.1,22,18.4z
		 M18.8,16.6c0.5,0,0.8,0,1.3,0c-0.2-0.5-0.4-1-0.6-1.6C19.2,15.6,19,16.1,18.8,16.6z"/>
	
		<linearGradient id="SVGID_8_" gradientUnits="userSpaceOnUse" x1="2.5138" y1="20.0625" x2="7.3178" y2="20.0625" gradientTransform="matrix(1 0 0 -1 0 42)">
		<stop  offset="0.2593" style="stop-color:#FFDB6E"/>
		<stop  offset="1" style="stop-color:#FFBC5E"/>
	</linearGradient>
	<path class="st7" d="M4.7,24.4c-0.4,0-0.7,0-1.1,0c-0.7,0-1.1-0.4-1.1-1.1s0-1.5,0-2.2S2.9,20,3.6,20c0.3,0,0.4,0,0.6-0.3
		s0.7-0.3,0.9,0c0.1,0.2,0.3,0.2,0.5,0.2c0.9,0,1.2,0.4,1.3,1.2c0,0.1,0.1,0.3,0.2,0.4c0.3,0.3,0.3,0.7,0,0.9
		C7,22.8,6.9,23,6.9,23.1c0,0.9-0.4,1.3-1.3,1.3C5.3,24.4,5,24.4,4.7,24.4z M3.7,21.3c0,0.7,0,1.3,0,1.9c0.7,0,1.3,0,1.9,0
		c0-0.7,0-1.3,0-1.9C5,21.3,4.4,21.3,3.7,21.3z"/>
	
		<linearGradient id="SVGID_9_" gradientUnits="userSpaceOnUse" x1="32.667" y1="19.9625" x2="37.4771" y2="19.9625" gradientTransform="matrix(1 0 0 -1 0 42)">
		<stop  offset="0.2593" style="stop-color:#FFDB6E"/>
		<stop  offset="1" style="stop-color:#FFBC5E"/>
	</linearGradient>
	<path class="st8" d="M35.3,24.4c-0.3,0-0.6,0-1,0c-0.7,0-1.1-0.4-1.2-1.1c0-0.2,0-0.5-0.3-0.6c-0.3-0.2-0.2-0.6,0-0.9
		c0.1-0.1,0.2-0.3,0.2-0.4c0-0.9,0.4-1.2,1.3-1.3c0.1,0,0.3-0.1,0.4-0.2c0.3-0.3,0.7-0.3,1,0c0.1,0.1,0.3,0.2,0.4,0.2
		c0.9,0,1.3,0.4,1.3,1.3c0,0.6,0,1.2,0,1.8c0,0.8-0.4,1.2-1.2,1.2C35.9,24.4,35.6,24.4,35.3,24.4z M36.3,23.2c0-0.6,0-1.3,0-1.9
		c-0.7,0-1.3,0-1.9,0c0,0.7,0,1.3,0,1.9C35,23.2,35.6,23.2,36.3,23.2z"/>
	
		<linearGradient id="SVGID_10_" gradientUnits="userSpaceOnUse" x1="2.5206" y1="31.9875" x2="7.3379" y2="31.9875" gradientTransform="matrix(1 0 0 -1 0 42)">
		<stop  offset="0.2593" style="stop-color:#FFDB6E"/>
		<stop  offset="1" style="stop-color:#FFBC5E"/>
	</linearGradient>
	<path class="st9" d="M4.7,7.6c0.3,0,0.6,0,1,0c0.7,0,1.2,0.4,1.2,1.2c0,0.2,0,0.4,0.3,0.6c0.3,0.2,0.3,0.7,0,0.9
		C7,10.4,7,10.6,7,10.8C7,11.6,6.6,12,5.8,12c-0.2,0-0.4,0-0.5,0.2c-0.2,0.3-0.7,0.3-0.9,0C4.3,12,4.1,12,3.9,12
		c-0.8,0-1.2-0.4-1.2-1.2c0-0.6,0-1.2,0-1.9c0-0.8,0.4-1.2,1.2-1.2C4.1,7.6,4.4,7.6,4.7,7.6z M3.7,8.8c0,0.7,0,1.3,0,1.9
		c0.7,0,1.3,0,1.9,0c0-0.7,0-1.3,0-1.9C5,8.8,4.4,8.8,3.7,8.8z"/>
	
		<linearGradient id="SVGID_11_" gradientUnits="userSpaceOnUse" x1="32.6773" y1="32.0553" x2="37.4773" y2="32.0553" gradientTransform="matrix(1 0 0 -1 0 42)">
		<stop  offset="0.2593" style="stop-color:#FFDB6E"/>
		<stop  offset="1" style="stop-color:#FFBC5E"/>
	</linearGradient>
	<path class="st10" d="M37.5,9.7c0,0.3,0,0.7,0,1c0,0.7-0.4,1.1-1.1,1.2c-0.3,0-0.4,0-0.6,0.3c-0.2,0.3-0.6,0.2-0.9,0
		c-0.1-0.1-0.3-0.2-0.4-0.2c-0.9,0-1.2-0.4-1.3-1.3c0-0.1-0.1-0.3-0.2-0.4c-0.4-0.3-0.4-0.7,0-1c0-0.1,0.1-0.3,0.1-0.5
		c0-0.9,0.4-1.3,1.3-1.3c0.6,0,1.2,0,1.9,0c0.8,0,1.2,0.4,1.2,1.2C37.5,9.1,37.5,9.4,37.5,9.7z M36.3,10.7c0-0.7,0-1.3,0-1.9
		c-0.7,0-1.3,0-1.9,0c0,0.7,0,1.3,0,1.9C35,10.7,35.6,10.7,36.3,10.7z"/>
	
		<linearGradient id="SVGID_12_" gradientUnits="userSpaceOnUse" x1="8.6635" y1="19.85" x2="10.7501" y2="19.85" gradientTransform="matrix(1 0 0 -1 0 42)">
		<stop  offset="0.2593" style="stop-color:#FFDB6E"/>
		<stop  offset="1" style="stop-color:#FFBC5E"/>
	</linearGradient>
	<path class="st11" d="M9.7,21.6c0.2,0,0.3,0,0.5,0c0.3,0,0.5,0.2,0.5,0.5s-0.2,0.5-0.5,0.6c-0.4,0-0.8,0-1.2,0
		c-0.3,0-0.5-0.3-0.5-0.6c0-0.3,0.2-0.5,0.6-0.5C9.4,21.6,9.5,21.6,9.7,21.6L9.7,21.6z"/>
	
		<linearGradient id="SVGID_13_" gradientUnits="userSpaceOnUse" x1="29.2481" y1="19.75" x2="31.3358" y2="19.75" gradientTransform="matrix(1 0 0 -1 0 42)">
		<stop  offset="0.2593" style="stop-color:#FFDB6E"/>
		<stop  offset="1" style="stop-color:#FFBC5E"/>
	</linearGradient>
	<path class="st12" d="M30.3,22.8c-0.2,0-0.4,0-0.5,0c-0.3-0.1-0.5-0.3-0.5-0.6c0-0.3,0.2-0.5,0.6-0.5c0.3,0,0.6,0,1,0
		c0.3,0,0.5,0.2,0.6,0.5c0,0.3-0.2,0.6-0.5,0.6C30.6,22.8,30.5,22.8,30.3,22.8L30.3,22.8z"/>
	
		<linearGradient id="SVGID_14_" gradientUnits="userSpaceOnUse" x1="8.6634" y1="32.2" x2="10.7496" y2="32.2" gradientTransform="matrix(1 0 0 -1 0 42)">
		<stop  offset="0.2593" style="stop-color:#FFDB6E"/>
		<stop  offset="1" style="stop-color:#FFBC5E"/>
	</linearGradient>
	<path class="st13" d="M9.7,10.3c-0.2,0-0.3,0-0.5,0c-0.3,0-0.5-0.2-0.5-0.5s0.1-0.6,0.5-0.6s0.8,0,1.1,0s0.5,0.3,0.5,0.6
		s-0.2,0.5-0.5,0.6C10,10.3,9.9,10.3,9.7,10.3z"/>
	
		<linearGradient id="SVGID_15_" gradientUnits="userSpaceOnUse" x1="29.2485" y1="32.3" x2="31.3337" y2="32.3" gradientTransform="matrix(1 0 0 -1 0 42)">
		<stop  offset="0.2593" style="stop-color:#FFDB6E"/>
		<stop  offset="1" style="stop-color:#FFBC5E"/>
	</linearGradient>
	<path class="st14" d="M30.3,10.3c-0.2,0-0.3,0-0.5,0c-0.3,0-0.5-0.2-0.5-0.6c0-0.3,0.2-0.6,0.5-0.6c0.4,0,0.7,0,1.1,0
		c0.3,0,0.5,0.3,0.5,0.6s-0.2,0.5-0.5,0.6C30.6,10.3,30.5,10.3,30.3,10.3z"/>
	
		<linearGradient id="SVGID_16_" gradientUnits="userSpaceOnUse" x1="25.8185" y1="32.3" x2="27.9015" y2="32.3" gradientTransform="matrix(1 0 0 -1 0 42)">
		<stop  offset="0.2593" style="stop-color:#FFDB6E"/>
		<stop  offset="1" style="stop-color:#FFBC5E"/>
	</linearGradient>
	<path class="st15" d="M26.9,10.3c-0.2,0-0.3,0-0.5,0c-0.3,0-0.5-0.2-0.5-0.6c0-0.3,0.2-0.6,0.5-0.6c0.4,0,0.7,0,1.1,0
		c0.3,0,0.5,0.3,0.5,0.6s-0.2,0.5-0.5,0.6C27.2,10.3,27,10.3,26.9,10.3z"/>
	
		<linearGradient id="SVGID_17_" gradientUnits="userSpaceOnUse" x1="12.0967" y1="32.3" x2="14.1791" y2="32.3" gradientTransform="matrix(1 0 0 -1 0 42)">
		<stop  offset="0.2593" style="stop-color:#FFDB6E"/>
		<stop  offset="1" style="stop-color:#FFBC5E"/>
	</linearGradient>
	<path class="st16" d="M13.1,10.3c-0.2,0-0.3,0-0.5,0c-0.3,0-0.5-0.2-0.5-0.6c0-0.3,0.2-0.6,0.5-0.6c0.4,0,0.7,0,1.1,0
		c0.3,0,0.5,0.3,0.5,0.6s-0.2,0.5-0.5,0.6C13.5,10.3,13.3,10.3,13.1,10.3z"/>
	
		<linearGradient id="SVGID_18_" gradientUnits="userSpaceOnUse" x1="12.0947" y1="19.75" x2="14.1845" y2="19.75" gradientTransform="matrix(1 0 0 -1 0 42)">
		<stop  offset="0.2593" style="stop-color:#FFDB6E"/>
		<stop  offset="1" style="stop-color:#FFBC5E"/>
	</linearGradient>
	<path class="st17" d="M13.1,22.8c-0.2,0-0.3,0-0.5,0c-0.3,0-0.5-0.3-0.5-0.6c0-0.3,0.2-0.5,0.6-0.5c0.3,0,0.6,0,0.9,0
		c0.3,0,0.6,0.2,0.6,0.5s-0.2,0.6-0.6,0.6C13.4,22.8,13.3,22.8,13.1,22.8L13.1,22.8z"/>
	
		<linearGradient id="SVGID_19_" gradientUnits="userSpaceOnUse" x1="25.8176" y1="19.85" x2="27.9017" y2="19.85" gradientTransform="matrix(1 0 0 -1 0 42)">
		<stop  offset="0.2593" style="stop-color:#FFDB6E"/>
		<stop  offset="1" style="stop-color:#FFBC5E"/>
	</linearGradient>
	<path class="st18" d="M26.8,21.6c0.2,0,0.3,0,0.5,0c0.3,0,0.5,0.2,0.5,0.5s-0.2,0.6-0.5,0.6c-0.4,0-0.8,0-1.1,0
		c-0.3,0-0.5-0.3-0.5-0.6c0-0.3,0.2-0.5,0.6-0.5C26.5,21.6,26.7,21.6,26.8,21.6z"/>
	
		<linearGradient id="SVGID_20_" gradientUnits="userSpaceOnUse" x1="22.3884" y1="19.75" x2="24.4718" y2="19.75" gradientTransform="matrix(1 0 0 -1 0 42)">
		<stop  offset="0.2593" style="stop-color:#FFDB6E"/>
		<stop  offset="1" style="stop-color:#FFBC5E"/>
	</linearGradient>
	<path class="st19" d="M23.4,22.8c-0.2,0-0.4,0-0.5,0c-0.3-0.1-0.5-0.3-0.5-0.6c0-0.3,0.2-0.5,0.5-0.5s0.6,0,1,0
		c0.3,0,0.5,0.2,0.6,0.5c0,0.3-0.2,0.6-0.5,0.6C23.8,22.8,23.6,22.8,23.4,22.8L23.4,22.8z"/>
	
		<linearGradient id="SVGID_21_" gradientUnits="userSpaceOnUse" x1="15.5273" y1="32.25" x2="17.61" y2="32.25" gradientTransform="matrix(1 0 0 -1 0 42)">
		<stop  offset="0.2593" style="stop-color:#FFDB6E"/>
		<stop  offset="1" style="stop-color:#FFBC5E"/>
	</linearGradient>
	<path class="st20" d="M16.5,10.3c-0.2,0-0.3,0-0.5,0c-0.3,0-0.5-0.2-0.5-0.5s0.1-0.6,0.4-0.6c0.4,0,0.8,0,1.2,0
		c0.3,0,0.5,0.3,0.4,0.6c0,0.3-0.2,0.5-0.5,0.5C16.9,10.3,16.7,10.3,16.5,10.3L16.5,10.3z"/>
	
		<linearGradient id="SVGID_22_" gradientUnits="userSpaceOnUse" x1="15.5258" y1="19.8" x2="17.6133" y2="19.8" gradientTransform="matrix(1 0 0 -1 0 42)">
		<stop  offset="0.2593" style="stop-color:#FFDB6E"/>
		<stop  offset="1" style="stop-color:#FFBC5E"/>
	</linearGradient>
	<path class="st21" d="M16.6,21.6c0.2,0,0.3,0,0.5,0c0.3,0,0.6,0.2,0.6,0.6c0,0.3-0.2,0.6-0.5,0.6s-0.7,0-1,0
		c-0.3,0-0.5-0.3-0.5-0.6c0-0.3,0.2-0.5,0.6-0.5C16.3,21.6,16.4,21.6,16.6,21.6z"/>
	
		<linearGradient id="SVGID_23_" gradientUnits="userSpaceOnUse" x1="22.3855" y1="32.25" x2="24.4715" y2="32.25" gradientTransform="matrix(1 0 0 -1 0 42)">
		<stop  offset="0.2593" style="stop-color:#FFDB6E"/>
		<stop  offset="1" style="stop-color:#FFBC5E"/>
	</linearGradient>
	<path class="st22" d="M23.4,10.3c-0.2,0-0.3,0-0.5,0c-0.3,0-0.5-0.2-0.6-0.5c0-0.3,0.2-0.6,0.5-0.6s0.7,0,1,0s0.5,0.3,0.5,0.6
		s-0.2,0.5-0.6,0.5C23.8,10.3,23.6,10.3,23.4,10.3z"/>
	
		<linearGradient id="SVGID_24_" gradientUnits="userSpaceOnUse" x1="18.9595" y1="32.3" x2="21.0386" y2="32.3" gradientTransform="matrix(1 0 0 -1 0 42)">
		<stop  offset="0.2593" style="stop-color:#FFDB6E"/>
		<stop  offset="1" style="stop-color:#FFBC5E"/>
	</linearGradient>
	<path class="st23" d="M20,10.3c-0.2,0-0.3,0-0.5,0c-0.3,0-0.5-0.2-0.5-0.6c0-0.3,0.2-0.6,0.5-0.6c0.4,0,0.7,0,1.1,0
		c0.3,0,0.5,0.3,0.5,0.6s-0.2,0.5-0.5,0.6C20.3,10.3,20.2,10.3,20,10.3z"/>
	
		<linearGradient id="SVGID_25_" gradientUnits="userSpaceOnUse" x1="18.9586" y1="19.85" x2="21.0394" y2="19.85" gradientTransform="matrix(1 0 0 -1 0 42)">
		<stop  offset="0.2593" style="stop-color:#FFDB6E"/>
		<stop  offset="1" style="stop-color:#FFBC5E"/>
	</linearGradient>
	<path class="st24" d="M20,21.6c0.2,0,0.3,0,0.5,0c0.3,0,0.5,0.2,0.5,0.5s-0.1,0.6-0.5,0.6s-0.8,0-1.2,0c-0.3,0-0.5-0.3-0.5-0.6
		c0-0.3,0.2-0.5,0.5-0.5C19.7,21.6,19.8,21.6,20,21.6z"/>
	
		<linearGradient id="SVGID_26_" gradientUnits="userSpaceOnUse" x1="34.7262" y1="27.55" x2="35.8971" y2="27.55" gradientTransform="matrix(1 0 0 -1 0 42)">
		<stop  offset="0.2593" style="stop-color:#FFDB6E"/>
		<stop  offset="1" style="stop-color:#FFBC5E"/>
	</linearGradient>
	<path class="st25" d="M35.9,14.4c0,0.2,0,0.4,0,0.5c-0.1,0.3-0.3,0.4-0.5,0.5c-0.3,0-0.5-0.1-0.6-0.4c0-0.4,0-0.8,0-1.1
		s0.3-0.4,0.6-0.4s0.5,0.2,0.5,0.5C35.9,14.1,35.9,14.3,35.9,14.4z"/>
	
		<linearGradient id="SVGID_27_" gradientUnits="userSpaceOnUse" x1="4.116" y1="24.5" x2="5.2803" y2="24.5" gradientTransform="matrix(1 0 0 -1 0 42)">
		<stop  offset="0.2593" style="stop-color:#FFDB6E"/>
		<stop  offset="1" style="stop-color:#FFBC5E"/>
	</linearGradient>
	<path class="st26" d="M4.1,17.5c0-0.2,0-0.3,0-0.5c0-0.3,0.3-0.5,0.6-0.5c0.3,0,0.5,0.2,0.6,0.5c0,0.3,0,0.7,0,1S5,18.5,4.7,18.5
		c-0.3,0-0.5-0.2-0.5-0.5C4.1,17.8,4.1,17.7,4.1,17.5L4.1,17.5z"/>
	
		<linearGradient id="SVGID_28_" gradientUnits="userSpaceOnUse" x1="34.7184" y1="24.5" x2="35.896" y2="24.5" gradientTransform="matrix(1 0 0 -1 0 42)">
		<stop  offset="0.2593" style="stop-color:#FFDB6E"/>
		<stop  offset="1" style="stop-color:#FFBC5E"/>
	</linearGradient>
	<path class="st27" d="M35.9,17.5c0,0.2,0,0.3,0,0.5c0,0.3-0.2,0.5-0.5,0.5s-0.5-0.1-0.6-0.5c0-0.3,0-0.7,0-1s0.2-0.5,0.6-0.5
		c0.3,0,0.5,0.2,0.6,0.6C35.9,17.2,35.9,17.4,35.9,17.5L35.9,17.5z"/>
	
		<linearGradient id="SVGID_29_" gradientUnits="userSpaceOnUse" x1="4.103" y1="27.6" x2="5.2797" y2="27.6" gradientTransform="matrix(1 0 0 -1 0 42)">
		<stop  offset="0.2593" style="stop-color:#FFDB6E"/>
		<stop  offset="1" style="stop-color:#FFBC5E"/>
	</linearGradient>
	<path class="st28" d="M4.1,14.4c0-0.2,0-0.3,0-0.5c0-0.3,0.3-0.5,0.6-0.5c0.3,0,0.5,0.2,0.6,0.5c0,0.3,0,0.7,0,1S5,15.4,4.7,15.4
		c-0.3,0-0.5-0.2-0.6-0.5C4.1,14.8,4.1,14.6,4.1,14.4L4.1,14.4z"/>
	
		<linearGradient id="SVGID_30_" gradientUnits="userSpaceOnUse" x1="8.2117" y1="38.9" x2="9.3768" y2="38.9" gradientTransform="matrix(1 0 0 -1 0 42)">
		<stop  offset="0.2593" style="stop-color:#FFDB6E"/>
		<stop  offset="1" style="stop-color:#FFBC5E"/>
	</linearGradient>
	<path class="st29" d="M9.4,3.1c0,0.3-0.3,0.6-0.6,0.6S8.2,3.4,8.3,3.1c0-0.3,0.3-0.6,0.6-0.6C9.1,2.5,9.4,2.8,9.4,3.1z"/>
	
		<linearGradient id="SVGID_31_" gradientUnits="userSpaceOnUse" x1="5.5397" y1="38.95" x2="6.6989" y2="38.95" gradientTransform="matrix(1 0 0 -1 0 42)">
		<stop  offset="0.2593" style="stop-color:#FFDB6E"/>
		<stop  offset="1" style="stop-color:#FFBC5E"/>
	</linearGradient>
	<path class="st30" d="M6.1,2.5c0.3,0,0.6,0.3,0.6,0.6S6.4,3.6,6.1,3.6C5.8,3.6,5.5,3.3,5.5,3C5.6,2.8,5.8,2.5,6.1,2.5z"/>
	
		<linearGradient id="SVGID_32_" gradientUnits="userSpaceOnUse" x1="2.8488" y1="38.9" x2="4.005" y2="38.9" gradientTransform="matrix(1 0 0 -1 0 42)">
		<stop  offset="0.2593" style="stop-color:#FFDB6E"/>
		<stop  offset="1" style="stop-color:#FFBC5E"/>
	</linearGradient>
	<path class="st31" d="M4,3.1c0,0.3-0.2,0.6-0.6,0.6c-0.3,0-0.6-0.3-0.6-0.6s0.3-0.6,0.6-0.6C3.8,2.5,4,2.8,4,3.1z"/>
</g>
</svg>
