<?xml version="1.0" encoding="utf-8"?>
<!-- Generator: Adobe Illustrator 23.0.1, SVG Export Plug-In . SVG Version: 6.00 Build 0)  -->
<svg version="1.1" id="Layer_1" xmlns="http://www.w3.org/2000/svg" xmlns:xlink="http://www.w3.org/1999/xlink" x="0px" y="0px"
	 viewBox="0 0 42 32" style="enable-background:new 0 0 42 32;" xml:space="preserve">
<style type="text/css">
	.st0{fill:url(#SVGID_1_);stroke:url(#SVGID_2_);stroke-width:0.25;}
	.st1{fill:url(#SVGID_3_);stroke:url(#SVGID_4_);stroke-width:0.25;}
	.st2{fill:url(#SVGID_5_);stroke:url(#SVGID_6_);stroke-width:0.25;}
	.st3{fill:url(#SVGID_7_);stroke:url(#SVGID_8_);stroke-width:0.25;}
	.st4{fill:url(#SVGID_9_);stroke:url(#SVGID_10_);stroke-width:0.25;}
	.st5{fill:url(#SVGID_11_);stroke:url(#SVGID_12_);stroke-width:0.25;}
	.st6{fill:url(#SVGID_13_);stroke:url(#SVGID_14_);stroke-width:0.25;}
	.st7{fill:url(#SVGID_15_);stroke:url(#SVGID_16_);stroke-width:0.25;}
	.st8{fill:url(#SVGID_17_);stroke:url(#SVGID_18_);stroke-width:0.25;}
	.st9{fill:url(#SVGID_19_);stroke:url(#SVGID_20_);stroke-width:0.25;}
	.st10{fill:url(#SVGID_21_);stroke:url(#SVGID_22_);stroke-width:0.25;}
	.st11{fill:url(#SVGID_23_);stroke:url(#SVGID_24_);stroke-width:0.25;}
	.st12{fill:url(#SVGID_25_);stroke:url(#SVGID_26_);stroke-width:0.25;}
	.st13{fill:url(#SVGID_27_);stroke:url(#SVGID_28_);stroke-width:0.25;}
	.st14{fill:url(#SVGID_29_);stroke:url(#SVGID_30_);stroke-width:0.25;}
	.st15{fill:url(#SVGID_31_);stroke:url(#SVGID_32_);stroke-width:0.25;}
	.st16{fill:url(#SVGID_33_);stroke:url(#SVGID_34_);stroke-width:0.25;}
	.st17{fill:url(#SVGID_35_);stroke:url(#SVGID_36_);stroke-width:0.25;}
	.st18{fill:url(#SVGID_37_);stroke:url(#SVGID_38_);stroke-width:0.25;}
	.st19{fill:url(#SVGID_39_);stroke:url(#SVGID_40_);stroke-width:0.25;}
	.st20{fill:url(#SVGID_41_);stroke:url(#SVGID_42_);stroke-width:0.25;}
	.st21{fill:url(#SVGID_43_);stroke:url(#SVGID_44_);stroke-width:0.25;}
	.st22{fill:url(#SVGID_45_);stroke:url(#SVGID_46_);stroke-width:0.25;}
</style>
<linearGradient id="SVGID_1_" gradientUnits="userSpaceOnUse" x1="0.7484" y1="13.878" x2="2.3605" y2="13.3793" gradientTransform="matrix(1 0 0 -1 0 34)">
	<stop  offset="0.2593" style="stop-color:#FFDB6E"/>
	<stop  offset="1" style="stop-color:#FFBC5E"/>
</linearGradient>
<linearGradient id="SVGID_2_" gradientUnits="userSpaceOnUse" x1="0.7484" y1="13.878" x2="2.3605" y2="13.3793" gradientTransform="matrix(1 0 0 -1 0 34)">
	<stop  offset="0.2593" style="stop-color:#FFDB6E"/>
	<stop  offset="1" style="stop-color:#FFBC5E"/>
</linearGradient>
<path class="st0" d="M2,21.6C2,21.8,1.8,22,1.6,22s-0.5-0.2-0.5-0.5v-2.4c0-0.3,0.2-0.5,0.5-0.5S2,18.9,2,19.2V21.6z"/>
<g>
	<linearGradient id="SVGID_3_" gradientUnits="userSpaceOnUse" x1="8.9549" y1="20.3439" x2="33.0428" y2="20.3439">
		<stop  offset="0.2593" style="stop-color:#FFDB6E"/>
		<stop  offset="1" style="stop-color:#FFBC5E"/>
	</linearGradient>
	<linearGradient id="SVGID_4_" gradientUnits="userSpaceOnUse" x1="8.8299" y1="20.3439" x2="33.1678" y2="20.3439">
		<stop  offset="0.2593" style="stop-color:#FFDB6E"/>
		<stop  offset="1" style="stop-color:#FFBC5E"/>
	</linearGradient>
	<path class="st1" d="M33,9.3c0,0.1,0,0.2,0,0.3c0,5.5,0,10.9,0,16.4c0,0.3-0.1,0.5-0.4,0.7c-0.9,0.6-1.9,1.2-2.8,1.8
		c-1.5,1-2.9,2-4.4,3c-4.9,0-9.7,0-14.6,0c0,0,0,0-0.1-0.1C9.5,30.9,9,30.1,9,28.8C9,22.4,9,16,9,9.6c0-0.1,0-0.2,0-0.3
		c0.3,0,0.6,0,0.9,0c0,0.1,0,0.3,0,0.4c0,6.4,0,12.8,0,19.2c0,0.9,0.6,1.6,1.5,1.6c4.5,0,8.9,0,13.4,0c0.2,0,0.3-0.1,0.4-0.2
		c0.2-0.5,0.4-1.1,0.5-1.7c-0.1,0-0.2,0-0.4,0c-3.9,0-7.9,0-11.8,0c-1,0-1.7-0.7-1.6-1.6c0-5.8,0-11.6,0-17.3c0-0.1,0-0.2,0-0.3
		c0.3,0,0.6,0,0.9,0c0,0.1,0,0.3,0,0.4c0,5.7,0,11.5,0,17.2c0,0.5,0.1,0.7,0.7,0.7c4,0,8,0,12.1,0c0.1,0,0.1,0,0.2,0
		c0.1,0,0.2,0,0.2-0.2c0.1-0.4,0.1-0.8,0.2-1.3c0.2-0.8,0.9-1.3,1.7-1.2c0.3,0.1,0.6,0.1,0.9,0.2c0.3,0.1,0.3,0,0.3-0.3
		c0-5.1,0-10.1,0-15.2c0-0.1,0-0.3,0-0.4c0.3,0,0.6,0,0.9,0c0,0.1,0,0.3,0,0.4c0,5.1,0,10.2,0,15.4c0,0.2,0.1,0.3,0.3,0.4
		c0.4,0,0.9,0.1,1.3,0.1c0.3,0,0.3,0,0.3-0.3c0-5.2,0-10.4,0-15.6c0-0.1,0-0.3,0-0.4C32.4,9.3,32.7,9.3,33,9.3z M26.4,29.6
		c1.6-1.1,3.1-2.1,4.7-3.1c-1.2-0.1-2.3-0.4-3.3-0.6c-0.3-0.1-0.6,0.1-0.6,0.4C26.9,27.4,26.7,28.5,26.4,29.6z"/>
	<linearGradient id="SVGID_5_" gradientUnits="userSpaceOnUse" x1="5.5931" y1="4.9598" x2="36.4069" y2="4.9598">
		<stop  offset="0.2593" style="stop-color:#FFDB6E"/>
		<stop  offset="1" style="stop-color:#FFBC5E"/>
	</linearGradient>
	<linearGradient id="SVGID_6_" gradientUnits="userSpaceOnUse" x1="5.4681" y1="4.9598" x2="36.5319" y2="4.9598">
		<stop  offset="0.2593" style="stop-color:#FFDB6E"/>
		<stop  offset="1" style="stop-color:#FFBC5E"/>
	</linearGradient>
	<path class="st2" d="M9,9.3C9,8.7,9,8,9,7.4c-0.1,0-0.1,0-0.2,0C7.6,8.2,6.2,7.7,5.7,6.3c0-0.1,0-0.1-0.1-0.1c0-0.3,0-0.6,0-0.9
		c0.3-1,1.2-1.6,1.9-2.2c0.7-0.6,1.4-1.2,2.1-1.8c0.9-0.8,2.2-0.8,3,0.2c0.3,0.4,0.5,0.8,0.5,1.4C13.1,3,13.2,3,13.4,3
		c3.1,0,6.2,0,9.3,0c2,0,4,0,5.9,0c0.2,0,0.3,0,0.3-0.2c0-0.9,0.4-1.6,1.3-2c0.9-0.4,1.6-0.2,2.3,0.4c1,0.9,2,1.8,3,2.7
		c0.9,0.7,1.1,1.6,0.8,2.6c-0.5,1.2-1.9,1.6-3,1c-0.1,0-0.1-0.1-0.3-0.2c0,0.7,0,1.3,0,1.9c-0.3,0-0.6,0-0.9,0c0-0.8,0-1.7,0-2.5
		c0-0.2-0.1-0.3-0.2-0.5c-0.8-0.7-1.6-1.4-2.3-2.1C29.4,4,29.2,4,29,4c-2.8,0-5.6,0-8.4,0c-2.6,0-5.1,0-7.7,0c-0.1,0-0.2,0-0.4,0.1
		c-0.8,0.8-1.6,1.5-2.5,2.2C10,6.4,9.9,6.5,9.9,6.7c0,0.9,0,1.7,0,2.6C9.6,9.3,9.3,9.3,9,9.3z M31,1.6c-0.4,0-0.9,0.2-1.1,0.7
		c-0.2,0.5-0.1,0.9,0.3,1.3c1.1,1,2.2,2,3.3,3c0.3,0.3,0.6,0.4,1,0.2c0.9-0.3,1.1-1.3,0.4-2c-1.1-1-2.2-2-3.3-3
		C31.5,1.7,31.3,1.6,31,1.6z M7.6,6.8c0.4,0,0.6-0.1,0.8-0.3c1.1-1,2.2-2,3.3-3c0.5-0.4,0.5-1.1,0.1-1.6c-0.4-0.5-1.1-0.5-1.6,0
		C9.9,2.2,9.6,2.4,9.3,2.7C8.5,3.4,7.7,4.1,6.9,4.8C6.5,5.2,6.5,5.7,6.7,6.1C6.8,6.5,7.2,6.8,7.6,6.8z"/>
	<linearGradient id="SVGID_7_" gradientUnits="userSpaceOnUse" x1="11.8529" y1="7.6171" x2="30.1402" y2="7.6171">
		<stop  offset="0.2593" style="stop-color:#FFDB6E"/>
		<stop  offset="1" style="stop-color:#FFBC5E"/>
	</linearGradient>
	<linearGradient id="SVGID_8_" gradientUnits="userSpaceOnUse" x1="11.7279" y1="7.6171" x2="30.2652" y2="7.6171">
		<stop  offset="0.2593" style="stop-color:#FFDB6E"/>
		<stop  offset="1" style="stop-color:#FFBC5E"/>
	</linearGradient>
	<path class="st3" d="M11.9,9.3c0-0.7,0-1.3,0-2c0-0.7,0.6-1.3,1.4-1.4c0.1,0,0.2,0,0.2,0c5,0,10,0,15.1,0c1,0,1.6,0.6,1.6,1.6
		c0,0.6,0,1.2,0,1.8c-0.3,0-0.6,0-0.9,0c0-0.6,0-1.2,0-1.9c0-0.4-0.2-0.6-0.6-0.6c-5.1,0-10.1,0-15.2,0c-0.4,0-0.6,0.2-0.6,0.6
		c0,0.6,0,1.2,0,1.8C12.5,9.3,12.2,9.3,11.9,9.3z"/>
	<linearGradient id="SVGID_9_" gradientUnits="userSpaceOnUse" x1="16.7311" y1="13.0196" x2="25.381" y2="13.0196">
		<stop  offset="0.2593" style="stop-color:#FFDB6E"/>
		<stop  offset="1" style="stop-color:#FFBC5E"/>
	</linearGradient>
	<linearGradient id="SVGID_10_" gradientUnits="userSpaceOnUse" x1="16.6061" y1="13.0196" x2="25.506" y2="13.0196">
		<stop  offset="0.2593" style="stop-color:#FFDB6E"/>
		<stop  offset="1" style="stop-color:#FFBC5E"/>
	</linearGradient>
	<path class="st4" d="M17.5,15.9c0-0.3,0.2-0.7,0.3-1c0.3-0.6,0.2-1-0.3-1.4c-0.2-0.1-0.4-0.4-0.6-0.6c-0.5-0.5-0.2-1.4,0.5-1.5
		c0.5-0.1,1.1-0.2,1.6-0.3c0.2,0,0.3-0.1,0.4-0.3c0.3-0.4,0.5-0.9,0.8-1.3c0.4-0.7,1.3-0.7,1.7,0c0.3,0.4,0.5,0.8,0.8,1.3
		c0.1,0.2,0.2,0.2,0.4,0.3c0.5,0.1,1,0.1,1.6,0.3c0.7,0.2,1,1,0.5,1.6c-0.3,0.3-0.6,0.6-0.9,0.9c-0.1,0.1-0.2,0.2-0.1,0.4
		c0.2,0.4,0.3,0.9,0.4,1.3c0.1,0.4,0.1,0.8-0.3,1.1C24,17,23.6,17,23.2,16.9c-0.6-0.3-1.3-0.5-1.9-0.8C21.1,16,21,16,20.8,16
		c-0.6,0.3-1.3,0.6-1.9,0.8C18.2,17.1,17.5,16.7,17.5,15.9z M17.8,12.3c0,0,0,0.1-0.1,0.1c0.3,0.3,0.6,0.6,0.9,0.9
		c0.4,0.4,0.5,0.8,0.3,1.3c-0.1,0.4-0.3,0.8-0.4,1.2c0,0.1-0.1,0.1,0,0.2c0.1,0.1,0.1,0,0.2,0c0.6-0.3,1.3-0.5,1.9-0.8
		c0.3-0.1,0.5-0.1,0.8,0c0.6,0.3,1.3,0.5,1.9,0.8c0.1,0,0.2,0.1,0.2,0.1c0.1-0.1,0-0.2,0-0.3c-0.1-0.3-0.2-0.7-0.3-1
		c-0.3-0.6-0.1-1.1,0.4-1.5c0.3-0.2,0.5-0.5,0.8-0.8c0,0,0-0.1,0-0.1c-0.5-0.1-0.9-0.2-1.4-0.2c-0.5-0.1-0.9-0.2-1.1-0.7
		c-0.2-0.4-0.5-0.7-0.7-1.1c-0.1-0.2-0.2-0.2-0.3,0c-0.2,0.4-0.5,0.8-0.8,1.3C20,11.8,19.8,12,19.4,12
		C18.9,12.1,18.3,12.2,17.8,12.3z"/>
	<linearGradient id="SVGID_11_" gradientUnits="userSpaceOnUse" x1="16.1872" y1="20.3432" x2="22.9183" y2="20.3432">
		<stop  offset="0.2593" style="stop-color:#FFDB6E"/>
		<stop  offset="1" style="stop-color:#FFBC5E"/>
	</linearGradient>
	<linearGradient id="SVGID_12_" gradientUnits="userSpaceOnUse" x1="16.0622" y1="20.3432" x2="23.0433" y2="20.3432">
		<stop  offset="0.2593" style="stop-color:#FFDB6E"/>
		<stop  offset="1" style="stop-color:#FFBC5E"/>
	</linearGradient>
	<path class="st5" d="M19.6,20.8c-0.9,0-1.8,0-2.8,0c-0.4,0-0.6-0.2-0.6-0.5c0-0.3,0.2-0.5,0.6-0.5c1.8,0,3.7,0,5.5,0
		c0.4,0,0.6,0.2,0.6,0.5c0,0.3-0.2,0.5-0.6,0.5C21.4,20.8,20.5,20.8,19.6,20.8z"/>
	<linearGradient id="SVGID_13_" gradientUnits="userSpaceOnUse" x1="19.0728" y1="22.2686" x2="25.8093" y2="22.2686">
		<stop  offset="0.2593" style="stop-color:#FFDB6E"/>
		<stop  offset="1" style="stop-color:#FFBC5E"/>
	</linearGradient>
	<linearGradient id="SVGID_14_" gradientUnits="userSpaceOnUse" x1="18.9478" y1="22.2686" x2="25.9343" y2="22.2686">
		<stop  offset="0.2593" style="stop-color:#FFDB6E"/>
		<stop  offset="1" style="stop-color:#FFBC5E"/>
	</linearGradient>
	<path class="st6" d="M22.5,21.8c0.9,0,1.8,0,2.7,0c0.4,0,0.6,0.2,0.6,0.5c0,0.3-0.2,0.5-0.6,0.5c-1.9,0-3.7,0-5.6,0
		c-0.4,0-0.6-0.2-0.6-0.5c0-0.3,0.2-0.5,0.6-0.5C20.6,21.8,21.5,21.8,22.5,21.8z"/>
	<linearGradient id="SVGID_15_" gradientUnits="userSpaceOnUse" x1="20.9958" y1="24.194" x2="25.8117" y2="24.194">
		<stop  offset="0.2593" style="stop-color:#FFDB6E"/>
		<stop  offset="1" style="stop-color:#FFBC5E"/>
	</linearGradient>
	<linearGradient id="SVGID_16_" gradientUnits="userSpaceOnUse" x1="20.8708" y1="24.194" x2="25.9367" y2="24.194">
		<stop  offset="0.2593" style="stop-color:#FFDB6E"/>
		<stop  offset="1" style="stop-color:#FFBC5E"/>
	</linearGradient>
	<path class="st7" d="M23.4,24.7c-0.6,0-1.2,0-1.8,0c-0.4,0-0.6-0.2-0.6-0.5c0-0.3,0.2-0.5,0.6-0.5c1.2,0,2.5,0,3.7,0
		c0.4,0,0.6,0.2,0.6,0.5c0,0.3-0.2,0.5-0.6,0.5C24.6,24.7,24,24.7,23.4,24.7z"/>
	<linearGradient id="SVGID_17_" gradientUnits="userSpaceOnUse" x1="16.1818" y1="24.1941" x2="20.5169" y2="24.1941">
		<stop  offset="0.2593" style="stop-color:#FFDB6E"/>
		<stop  offset="1" style="stop-color:#FFBC5E"/>
	</linearGradient>
	<linearGradient id="SVGID_18_" gradientUnits="userSpaceOnUse" x1="16.0568" y1="24.1941" x2="20.6419" y2="24.1941">
		<stop  offset="0.2593" style="stop-color:#FFDB6E"/>
		<stop  offset="1" style="stop-color:#FFBC5E"/>
	</linearGradient>
	<path class="st8" d="M18.4,23.7c0.5,0,1,0,1.6,0c0.4,0,0.6,0.2,0.6,0.5c0,0.3-0.2,0.5-0.6,0.5c-1.1,0-2.1,0-3.2,0
		c-0.4,0-0.6-0.2-0.6-0.5c0-0.3,0.2-0.5,0.6-0.5C17.3,23.7,17.8,23.7,18.4,23.7z"/>
	<linearGradient id="SVGID_19_" gradientUnits="userSpaceOnUse" x1="23.4076" y1="20.344" x2="25.8066" y2="20.344">
		<stop  offset="0.2593" style="stop-color:#FFDB6E"/>
		<stop  offset="1" style="stop-color:#FFBC5E"/>
	</linearGradient>
	<linearGradient id="SVGID_20_" gradientUnits="userSpaceOnUse" x1="23.2826" y1="20.344" x2="25.9316" y2="20.344">
		<stop  offset="0.2593" style="stop-color:#FFDB6E"/>
		<stop  offset="1" style="stop-color:#FFBC5E"/>
	</linearGradient>
	<path class="st9" d="M24.6,19.9c0.2,0,0.5,0,0.7,0c0.3,0,0.5,0.2,0.5,0.5c0,0.3-0.2,0.5-0.5,0.5c-0.5,0-0.9,0-1.4,0
		c-0.3,0-0.5-0.2-0.5-0.5c0-0.3,0.2-0.5,0.5-0.5C24.1,19.9,24.4,19.9,24.6,19.9z"/>
	<linearGradient id="SVGID_21_" gradientUnits="userSpaceOnUse" x1="16.1845" y1="22.2679" x2="18.5887" y2="22.2679">
		<stop  offset="0.2593" style="stop-color:#FFDB6E"/>
		<stop  offset="1" style="stop-color:#FFBC5E"/>
	</linearGradient>
	<linearGradient id="SVGID_22_" gradientUnits="userSpaceOnUse" x1="16.0595" y1="22.2679" x2="18.7137" y2="22.2679">
		<stop  offset="0.2593" style="stop-color:#FFDB6E"/>
		<stop  offset="1" style="stop-color:#FFBC5E"/>
	</linearGradient>
	<path class="st10" d="M17.4,22.7c-0.2,0-0.5,0-0.7,0c-0.3,0-0.5-0.2-0.5-0.5c0-0.3,0.2-0.5,0.5-0.5c0.5,0,0.9,0,1.4,0
		c0.3,0,0.5,0.2,0.5,0.5c0,0.3-0.2,0.5-0.5,0.5C17.9,22.8,17.6,22.7,17.4,22.7z"/>
	<linearGradient id="SVGID_23_" gradientUnits="userSpaceOnUse" x1="15.2599" y1="14.1413" x2="17.3463" y2="14.1413">
		<stop  offset="0.2593" style="stop-color:#FFDB6E"/>
		<stop  offset="1" style="stop-color:#FFBC5E"/>
	</linearGradient>
	<linearGradient id="SVGID_24_" gradientUnits="userSpaceOnUse" x1="15.1349" y1="14.1413" x2="17.4713" y2="14.1413">
		<stop  offset="0.2593" style="stop-color:#FFDB6E"/>
		<stop  offset="1" style="stop-color:#FFBC5E"/>
	</linearGradient>
	<path class="st11" d="M16.3,13.7c0.2,0,0.4,0,0.5,0c0.3,0,0.5,0.2,0.5,0.4c0,0.2-0.2,0.5-0.4,0.5c-0.4,0-0.8,0-1.3,0
		c-0.2,0-0.4-0.3-0.4-0.5c0-0.3,0.2-0.4,0.5-0.4c0,0,0,0,0.1,0C16,13.7,16.2,13.7,16.3,13.7z"/>
	<linearGradient id="SVGID_25_" gradientUnits="userSpaceOnUse" x1="24.794" y1="14.1424" x2="26.8694" y2="14.1424">
		<stop  offset="0.2593" style="stop-color:#FFDB6E"/>
		<stop  offset="1" style="stop-color:#FFBC5E"/>
	</linearGradient>
	<linearGradient id="SVGID_26_" gradientUnits="userSpaceOnUse" x1="24.669" y1="14.1424" x2="26.9944" y2="14.1424">
		<stop  offset="0.2593" style="stop-color:#FFDB6E"/>
		<stop  offset="1" style="stop-color:#FFBC5E"/>
	</linearGradient>
	<path class="st12" d="M25.8,13.7c0.2,0,0.4,0,0.5,0c0.3,0,0.5,0.2,0.5,0.4c0,0.2-0.2,0.5-0.5,0.5c-0.4,0-0.8,0-1.2,0
		c-0.3,0-0.4-0.2-0.4-0.5c0-0.3,0.2-0.4,0.5-0.4C25.4,13.7,25.6,13.7,25.8,13.7z"/>
	<linearGradient id="SVGID_27_" gradientUnits="userSpaceOnUse" x1="20.5792" y1="17.7391" x2="21.5356" y2="17.7391">
		<stop  offset="0.2593" style="stop-color:#FFDB6E"/>
		<stop  offset="1" style="stop-color:#FFBC5E"/>
	</linearGradient>
	<linearGradient id="SVGID_28_" gradientUnits="userSpaceOnUse" x1="20.4542" y1="17.7391" x2="21.6606" y2="17.7391">
		<stop  offset="0.2593" style="stop-color:#FFDB6E"/>
		<stop  offset="1" style="stop-color:#FFBC5E"/>
	</linearGradient>
	<path class="st13" d="M21.5,17.7c0,0.2,0,0.4,0,0.6c0,0.3-0.2,0.5-0.5,0.5c-0.3,0-0.5-0.2-0.5-0.5c0-0.4,0-0.8,0-1.1
		c0-0.3,0.2-0.5,0.5-0.5c0.2,0,0.4,0.2,0.5,0.5C21.5,17.4,21.5,17.6,21.5,17.7C21.5,17.7,21.5,17.7,21.5,17.7z"/>
	<linearGradient id="SVGID_29_" gradientUnits="userSpaceOnUse" x1="23.2454" y1="9.9318" x2="24.7307" y2="9.9318">
		<stop  offset="0.2593" style="stop-color:#FFDB6E"/>
		<stop  offset="1" style="stop-color:#FFBC5E"/>
	</linearGradient>
	<linearGradient id="SVGID_30_" gradientUnits="userSpaceOnUse" x1="23.1204" y1="9.908" x2="24.9664" y2="9.908">
		<stop  offset="0.2593" style="stop-color:#FFDB6E"/>
		<stop  offset="1" style="stop-color:#FFBC5E"/>
	</linearGradient>
	<path class="st14" d="M24.7,9.6c-0.2,0.2-0.4,0.4-0.6,0.7c-0.2,0.2-0.5,0.2-0.7,0.1c-0.2-0.2-0.2-0.5,0-0.7c0,0,0.1-0.1,0.2-0.1
		c0.1,0.1,0.2,0.1,0.3,0.1C24.2,9.5,24.5,9.5,24.7,9.6z"/>
	<linearGradient id="SVGID_31_" gradientUnits="userSpaceOnUse" x1="17.1576" y1="9.1834" x2="18.5968" y2="9.1834">
		<stop  offset="0.2593" style="stop-color:#FFDB6E"/>
		<stop  offset="1" style="stop-color:#FFBC5E"/>
	</linearGradient>
	<linearGradient id="SVGID_32_" gradientUnits="userSpaceOnUse" x1="17.0326" y1="9.2063" x2="18.7795" y2="9.2063">
		<stop  offset="0.2593" style="stop-color:#FFDB6E"/>
		<stop  offset="1" style="stop-color:#FFBC5E"/>
	</linearGradient>
	<path class="st15" d="M17.5,9.7c-0.1-0.1-0.2-0.2-0.3-0.3c-0.1-0.2,0-0.4,0.2-0.5c0.2-0.1,0.4-0.1,0.6,0c0.3,0.2,0.5,0.4,0.7,0.7
		c-0.3,0.1-0.5,0-0.8,0.1C17.7,9.6,17.6,9.5,17.5,9.7z"/>
	<linearGradient id="SVGID_33_" gradientUnits="userSpaceOnUse" x1="17.4887" y1="9.9603" x2="18.8775" y2="9.9603">
		<stop  offset="0.2593" style="stop-color:#FFDB6E"/>
		<stop  offset="1" style="stop-color:#FFBC5E"/>
	</linearGradient>
	<linearGradient id="SVGID_34_" gradientUnits="userSpaceOnUse" x1="17.3457" y1="9.9474" x2="19.0025" y2="9.9474">
		<stop  offset="0.2593" style="stop-color:#FFDB6E"/>
		<stop  offset="1" style="stop-color:#FFBC5E"/>
	</linearGradient>
	<path class="st16" d="M17.5,9.7c0.1-0.1,0.2-0.1,0.3-0.1c0.3,0,0.5,0.1,0.8-0.1c0.3,0.3,0.4,0.5,0.2,0.8c-0.2,0.2-0.5,0.2-0.7,0
		c-0.1-0.1-0.1-0.1-0.2-0.2C17.7,9.9,17.6,9.8,17.5,9.7z"/>
	<linearGradient id="SVGID_35_" gradientUnits="userSpaceOnUse" x1="23.5804" y1="9.1471" x2="24.9615" y2="9.1471">
		<stop  offset="0.2593" style="stop-color:#FFDB6E"/>
		<stop  offset="1" style="stop-color:#FFBC5E"/>
	</linearGradient>
	<linearGradient id="SVGID_36_" gradientUnits="userSpaceOnUse" x1="23.4098" y1="9.1541" x2="25.0865" y2="9.1541">
		<stop  offset="0.2593" style="stop-color:#FFDB6E"/>
		<stop  offset="1" style="stop-color:#FFBC5E"/>
	</linearGradient>
	<path class="st17" d="M24.7,9.6c-0.3-0.1-0.6-0.1-0.8-0.1c-0.1,0-0.2,0-0.3-0.1c0.2-0.2,0.3-0.4,0.5-0.5c0.2-0.2,0.5-0.3,0.7-0.1
		C25,9.1,25,9.3,24.7,9.6z"/>
	<linearGradient id="SVGID_37_" gradientUnits="userSpaceOnUse" x1="26.0115" y1="11.4665" x2="26.7635" y2="11.4665">
		<stop  offset="0.2593" style="stop-color:#FFDB6E"/>
		<stop  offset="1" style="stop-color:#FFBC5E"/>
	</linearGradient>
	<linearGradient id="SVGID_38_" gradientUnits="userSpaceOnUse" x1="25.8865" y1="11.4665" x2="26.8885" y2="11.4665">
		<stop  offset="0.2593" style="stop-color:#FFDB6E"/>
		<stop  offset="1" style="stop-color:#FFBC5E"/>
	</linearGradient>
	<path class="st18" d="M26.8,11.5c0,0.2-0.2,0.4-0.4,0.4c-0.2,0-0.3-0.2-0.4-0.4c0-0.2,0.2-0.4,0.4-0.4
		C26.6,11.1,26.8,11.3,26.8,11.5z"/>
	<linearGradient id="SVGID_39_" gradientUnits="userSpaceOnUse" x1="20.696" y1="8.0403" x2="21.4396" y2="8.0403">
		<stop  offset="0.2593" style="stop-color:#FFDB6E"/>
		<stop  offset="1" style="stop-color:#FFBC5E"/>
	</linearGradient>
	<linearGradient id="SVGID_40_" gradientUnits="userSpaceOnUse" x1="20.571" y1="8.0403" x2="21.5646" y2="8.0403">
		<stop  offset="0.2593" style="stop-color:#FFDB6E"/>
		<stop  offset="1" style="stop-color:#FFBC5E"/>
	</linearGradient>
	<path class="st19" d="M21,8.4c-0.2,0-0.3-0.2-0.3-0.4c0-0.2,0.2-0.3,0.4-0.4c0.2,0,0.4,0.2,0.4,0.4C21.4,8.2,21.2,8.4,21,8.4z"/>
	<linearGradient id="SVGID_41_" gradientUnits="userSpaceOnUse" x1="24.8691" y1="17.5547" x2="25.6233" y2="17.5547">
		<stop  offset="0.2593" style="stop-color:#FFDB6E"/>
		<stop  offset="1" style="stop-color:#FFBC5E"/>
	</linearGradient>
	<linearGradient id="SVGID_42_" gradientUnits="userSpaceOnUse" x1="24.7441" y1="17.5547" x2="25.7492" y2="17.5547">
		<stop  offset="0.2593" style="stop-color:#FFDB6E"/>
		<stop  offset="1" style="stop-color:#FFBC5E"/>
	</linearGradient>
	<path class="st20" d="M25.6,17.6c0,0.2-0.1,0.4-0.3,0.4c-0.2,0-0.4-0.2-0.4-0.4c0-0.2,0.2-0.4,0.4-0.4
		C25.5,17.2,25.6,17.3,25.6,17.6z"/>
	<linearGradient id="SVGID_43_" gradientUnits="userSpaceOnUse" x1="15.3565" y1="11.4684" x2="16.108" y2="11.4684">
		<stop  offset="0.2593" style="stop-color:#FFDB6E"/>
		<stop  offset="1" style="stop-color:#FFBC5E"/>
	</linearGradient>
	<linearGradient id="SVGID_44_" gradientUnits="userSpaceOnUse" x1="15.2315" y1="11.4685" x2="16.233" y2="11.4685">
		<stop  offset="0.2593" style="stop-color:#FFDB6E"/>
		<stop  offset="1" style="stop-color:#FFBC5E"/>
	</linearGradient>
	<path class="st21" d="M15.7,11.8c-0.2,0-0.3-0.1-0.4-0.4c0-0.2,0.2-0.4,0.4-0.4c0.2,0,0.4,0.1,0.4,0.3
		C16.1,11.6,15.9,11.8,15.7,11.8z"/>
	<linearGradient id="SVGID_45_" gradientUnits="userSpaceOnUse" x1="16.8761" y1="17.557" x2="17.6186" y2="17.557">
		<stop  offset="0.2593" style="stop-color:#FFDB6E"/>
		<stop  offset="1" style="stop-color:#FFBC5E"/>
	</linearGradient>
	<linearGradient id="SVGID_46_" gradientUnits="userSpaceOnUse" x1="16.7511" y1="17.557" x2="17.7436" y2="17.557">
		<stop  offset="0.2593" style="stop-color:#FFDB6E"/>
		<stop  offset="1" style="stop-color:#FFBC5E"/>
	</linearGradient>
	<path class="st22" d="M17.3,17.9c-0.2,0-0.4-0.2-0.4-0.4c0-0.2,0.2-0.4,0.4-0.4c0.2,0,0.4,0.1,0.4,0.4
		C17.6,17.8,17.5,17.9,17.3,17.9z"/>
</g>
</svg>
